<?xml version="1.0" encoding="UTF-8"?><!DOCTYPE svg PUBLIC "-//W3C//DTD SVG 1.1//EN" "http://www.w3.org/Graphics/SVG/1.1/DTD/svg11.dtd"><svg xmlns="http://www.w3.org/2000/svg" xmlns:xlink="http://www.w3.org/1999/xlink"><symbol id="icon-check" viewBox="0 0 26 20">
<path d="M0.3,11C0.1,10.8,0,10.5,0,10.3s0.1-0.5,0.3-0.7l1.4-1.4c0.4-0.4,1-0.4,1.4,0l0.1,0.1l5.5,5.9c0.2,0.2,0.5,0.2,0.7,0
	L22.8,0.3h0.1l0,0c0.4-0.4,1-0.4,1.4,0l1.4,1.4c0.4,0.4,0.4,1,0,1.4l0,0l-16,16.6C9.5,19.9,9.3,20,9,20s-0.5-0.1-0.7-0.3l-7.8-8.4
	C0.5,11.3,0.3,11,0.3,11z"/>
</symbol><symbol id="icon-close" viewBox="0 0 21.9 21.9">
  <path d="M14.1,11.3c-0.2-0.2-0.2-0.5,0-0.7l7.5-7.5c0.2-0.2,0.3-0.5,0.3-0.7s-0.1-0.5-0.3-0.7l-1.4-1.4C20,0.1,19.7,0,19.5,0  c-0.3,0-0.5,0.1-0.7,0.3l-7.5,7.5c-0.2,0.2-0.5,0.2-0.7,0L3.1,0.3C2.9,0.1,2.6,0,2.4,0S1.9,0.1,1.7,0.3L0.3,1.7C0.1,1.9,0,2.2,0,2.4  s0.1,0.5,0.3,0.7l7.5,7.5c0.2,0.2,0.2,0.5,0,0.7l-7.5,7.5C0.1,19,0,19.3,0,19.5s0.1,0.5,0.3,0.7l1.4,1.4c0.2,0.2,0.5,0.3,0.7,0.3  s0.5-0.1,0.7-0.3l7.5-7.5c0.2-0.2,0.5-0.2,0.7,0l7.5,7.5c0.2,0.2,0.5,0.3,0.7,0.3s0.5-0.1,0.7-0.3l1.4-1.4c0.2-0.2,0.3-0.5,0.3-0.7  s-0.1-0.5-0.3-0.7L14.1,11.3z"/>
</symbol></svg>